<svg width="160" height="140" viewBox="0 0 160 140" fill="none" xmlns="http://www.w3.org/2000/svg">
<path d="M155 110H100C98.67 110 97.4 110.53 96.46 111.46L80 127.93L63.54 111.47C62.6 110.53 61.33 110 60 110H5C2.24 110 0 112.24 0 115C0 117.76 2.24 120 5 120H57.93L76.47 138.54C77.44 139.51 78.72 140 80 140C81.28 140 82.56 139.51 83.54 138.54L102.07 120H155C157.76 120 160 117.76 160 115C160 112.24 157.76 110 155 110Z" fill="#B2B2B2"/>
<path d="M80 30C52.4 30 30 52.4 30 80C30 87.11 31.54 93.86 34.21 100H60C64 100 67.77 101.56 70.61 104.39L80 113.79L89.39 104.4C92.23 101.56 96 100 100 100H125.79C128.46 93.86 130 87.11 130 80C130 52.4 107.6 30 80 30Z" fill="#B2B2B2"/>
<path d="M80 0C77.24 0 75 2.24 75 5V15C75 17.76 77.24 20 80 20C82.76 20 85 17.76 85 15V5C85 2.24 82.76 0 80 0Z" fill="#B2B2B2"/>
<path d="M15 75H5C2.24 75 0 77.24 0 80C0 82.76 2.24 85 5 85H15C17.76 85 20 82.76 20 80C20 77.24 17.76 75 15 75Z" fill="#B2B2B2"/>
<path d="M155 75H145C142.24 75 140 77.24 140 80C140 82.76 142.24 85 145 85H155C157.76 85 160 82.76 160 80C160 77.24 157.76 75 155 75Z" fill="#B2B2B2"/>
<path d="M37.57 30.5L30.5 23.44C28.55 21.49 25.38 21.49 23.43 23.44C21.48 25.39 21.48 28.56 23.43 30.51L30.5 37.57C31.48 38.55 32.76 39.03 34.04 39.03C35.32 39.03 36.6 38.55 37.57 37.57C39.52 35.62 39.52 32.45 37.57 30.5Z" fill="#B2B2B2"/>
<path d="M136.57 23.44C134.62 21.49 131.45 21.49 129.5 23.44L122.43 30.5C120.48 32.45 120.48 35.62 122.43 37.57C123.41 38.55 124.69 39.04 125.97 39.04C127.25 39.04 128.53 38.55 129.51 37.58L136.57 30.51C138.52 28.56 138.52 25.39 136.57 23.44Z" fill="#B2B2B2"/>
</svg>
