<svg width="26" height="20" viewBox="0 0 26 20" fill="none" xmlns="http://www.w3.org/2000/svg">
<path d="M23.5625 0H2.43752C1.09339 0 0 1.09339 0 2.43752V17.0625C0 18.4066 1.09339 19.5 2.43752 19.5H23.5625C24.9066 19.5 26 18.4066 26 17.0625V2.43752C26 1.09339 24.9066 0 23.5625 0ZM23.5625 1.62499C23.6729 1.62499 23.7779 1.6479 23.8739 1.6879L13 11.1124L2.12604 1.6879C2.22205 1.64795 2.32707 1.62499 2.43746 1.62499H23.5625ZM23.5625 17.875H2.43752C1.98922 17.875 1.62499 17.5108 1.62499 17.0625V3.40472L12.4676 12.8016C12.6207 12.9341 12.8104 13 13 13C13.1896 13 13.3793 12.9342 13.5324 12.8016L24.375 3.40472V17.0625C24.375 17.5108 24.0108 17.875 23.5625 17.875Z" fill="#A9D539"/>
</svg>
