<svg width="26" height="26" viewBox="0 0 26 26" fill="none" xmlns="http://www.w3.org/2000/svg">
<path d="M20.9308 25.887C20.7277 25.887 20.526 25.8201 20.353 25.6895L13.8155 20.7534L10.3092 23.5618C10.0342 23.7819 9.67974 23.8373 9.36042 23.7103C9.04152 23.5829 8.79932 23.2888 8.71287 22.9242L6.9523 15.4975L0.661577 12.82C0.265551 12.6514 0.00290563 12.2296 2.39464e-05 11.7577C-0.00285774 11.2857 0.254573 10.86 0.648678 10.6854L24.5683 0.0909793C24.6769 0.0396569 24.7917 0.0100243 24.9075 0.00208152C24.949 -0.000667893 24.9905 -0.00066781 25.0318 0.00192886C25.2717 0.0178143 25.5073 0.126569 25.6912 0.327276C25.7103 0.348049 25.7284 0.369281 25.7455 0.391429C25.8979 0.58511 25.9816 0.821254 25.9974 1.06183C26.0012 1.12231 26.0009 1.18356 25.9961 1.24482C25.9928 1.2885 25.9872 1.33203 25.9792 1.37526L21.9417 24.9559C21.8768 25.3347 21.6452 25.6518 21.3252 25.7995C21.1982 25.8582 21.0642 25.887 20.9308 25.887ZM14.3895 18.4183L20.2128 22.815L23.3544 4.46667L12.0079 16.62L14.3621 18.3976C14.3715 18.4042 14.3806 18.4112 14.3895 18.4183ZM9.54183 17.4405L10.3215 20.7291L12.0014 19.3836L9.80173 17.7227C9.6995 17.6457 9.61195 17.5497 9.54183 17.4405ZM3.86093 11.7285L8.18044 13.5668C8.48988 13.6984 8.72343 13.988 8.80796 14.3445L9.35576 16.6554C9.38087 16.3889 9.48941 16.1381 9.66574 15.9491L20.4774 4.36891L3.86093 11.7285Z" fill="#A9D539"/>
</svg>
