<svg width="28" height="28" viewBox="0 0 28 28" fill="none" xmlns="http://www.w3.org/2000/svg">
<path d="M6.24889 18.283C8.81333 21.3485 11.9004 23.7621 15.4238 25.47C16.7653 26.1057 18.5593 26.8599 20.558 26.9892C20.682 26.9946 20.8005 27 20.9244 27C22.2659 27 23.3434 26.5367 24.2215 25.5831C24.2269 25.5777 24.2377 25.5669 24.2431 25.5562C24.5556 25.179 24.9111 24.8396 25.2829 24.4787C25.5361 24.2362 25.7947 23.983 26.0425 23.7244C27.19 22.5284 27.19 21.0091 26.0317 19.8508L22.7938 16.6129C22.2443 16.0419 21.5871 15.7402 20.8975 15.7402C20.2079 15.7402 19.5452 16.0419 18.9795 16.6075L17.0508 18.5363C16.873 18.4339 16.6898 18.3423 16.5174 18.2561C16.3019 18.1484 16.1026 18.046 15.9248 17.9329C14.1685 16.8177 12.5738 15.363 11.0491 13.4936C10.2787 12.5184 9.76153 11.6995 9.40056 10.8645C9.90699 10.4065 10.3811 9.92706 10.839 9.45835C11.0006 9.29134 11.1677 9.12433 11.3347 8.95731C11.9165 8.37547 12.229 7.70203 12.229 7.01782C12.229 6.33361 11.9219 5.66017 11.3347 5.07833L9.7292 3.47286C9.54064 3.28429 9.36285 3.10112 9.17968 2.91256C8.8241 2.54621 8.45237 2.16908 8.08602 1.82967C7.53111 1.28554 6.87922 1 6.18962 1C5.50541 1 4.84814 1.28554 4.27168 1.83506L2.25676 3.84998C1.52406 4.58268 1.10923 5.47161 1.02303 6.50062C0.920663 7.78823 1.15771 9.15665 1.77189 10.8106C2.7147 13.3697 4.13699 15.7455 6.24889 18.283ZM2.33757 6.61376C2.40222 5.89722 2.67698 5.29921 3.19418 4.78201L5.19833 2.77787C5.5108 2.47617 5.8556 2.31993 6.18962 2.31993C6.51826 2.31993 6.85228 2.47617 7.15937 2.78864C7.52033 3.12267 7.85974 3.47286 8.22609 3.84459C8.40927 4.03315 8.59783 4.22172 8.78639 4.41567L10.3919 6.02114C10.7259 6.35516 10.8983 6.69457 10.8983 7.02859C10.8983 7.36262 10.7259 7.70203 10.3919 8.03605C10.2248 8.20307 10.0578 8.37547 9.89082 8.54248C9.38979 9.0489 8.92108 9.52839 8.40388 9.98632C8.3931 9.9971 8.38772 10.0025 8.37694 10.0133C7.92978 10.4604 7.99982 10.886 8.10757 11.2093C8.11296 11.2254 8.11834 11.2362 8.12373 11.2524C8.53857 12.2491 9.11503 13.1973 10.0147 14.3286C11.631 16.322 13.3334 17.8682 15.2083 19.0588C15.4399 19.2097 15.6878 19.3282 15.9194 19.4467C16.1349 19.5545 16.3343 19.6569 16.512 19.77C16.5336 19.7808 16.5498 19.7915 16.5713 19.8023C16.7491 19.8939 16.9215 19.937 17.0939 19.937C17.5249 19.937 17.805 19.6622 17.8966 19.5707L19.9115 17.5557C20.224 17.2433 20.5634 17.0763 20.8975 17.0763C21.3069 17.0763 21.6409 17.3295 21.851 17.5557L25.0997 20.799C25.7462 21.4455 25.7408 22.1459 25.0835 22.8301C24.8573 23.0725 24.6202 23.3042 24.367 23.5466C23.9899 23.913 23.5966 24.2901 23.241 24.7157C22.6215 25.3838 21.8834 25.6962 20.9298 25.6962C20.8382 25.6962 20.7412 25.6908 20.6496 25.6855C18.8825 25.5723 17.2394 24.8827 16.0056 24.2955C12.6546 22.6738 9.71304 20.3734 7.27251 17.4534C5.26298 15.0344 3.91072 12.7824 3.01639 10.3688C2.46148 8.88728 2.25137 7.69664 2.33757 6.61376Z" fill="#A9D539" stroke="#A9D539" stroke-width="0.2"/>
</svg>
