<svg width="100" height="138" viewBox="0 0 100 138" fill="none" xmlns="http://www.w3.org/2000/svg">
<path d="M49.9999 60.0984C47.1395 60.0984 44.8147 62.4316 44.8147 65.3036C44.8147 68.1713 47.1395 70.5077 49.9999 70.5077C52.8572 70.5077 55.1831 68.1713 55.1831 65.3036C55.1831 62.4316 52.8572 60.0984 49.9999 60.0984Z" fill="#B2B2B2"/>
<path d="M50 0C22.4273 0 0 22.4725 0 50.0935C0 77.7144 22.4273 100.187 50 100.187C77.5695 100.187 100 77.7144 100 50.0935C100 22.4725 77.5695 0 50 0ZM50 78.5713C42.6936 78.5713 36.7503 72.6174 36.7503 65.3026C36.7503 59.3939 40.6261 54.3756 45.9677 52.663V36.4058C45.9677 34.1797 47.7718 32.3736 50 32.3736C52.2261 32.3736 54.0323 34.1797 54.0323 36.4058V52.663C59.3708 54.3756 63.2477 59.3939 63.2477 65.3026C63.2477 72.6174 57.3043 78.5713 50 78.5713ZM80.0592 54.1257C77.8331 54.1257 76.027 52.3217 76.027 50.0935C76.027 35.7096 64.3492 24.0056 50 24.0056C35.6477 24.0056 23.9709 35.7096 23.9709 50.0935C23.9709 52.3217 22.1638 54.1257 19.9387 54.1257C17.7125 54.1257 15.9064 52.3217 15.9064 50.0935C15.9064 31.2605 31.1985 15.9411 50 15.9411C68.7983 15.9411 84.0915 31.2605 84.0915 50.0935C84.0915 52.3217 82.2854 54.1257 80.0592 54.1257Z" fill="#B2B2B2"/>
<path d="M27.5107 103.711V108.628C27.5107 114.17 32.0165 118.678 37.5514 118.678H38.1143V125.774C38.1143 132.313 43.436 137.634 49.9758 137.634H50.022C56.5618 137.634 61.8825 132.313 61.8825 125.774V118.678H62.4464C67.9813 118.678 72.4872 114.17 72.4872 108.628V103.714C65.5672 106.636 57.9679 108.251 50 108.251C42.0321 108.251 34.4327 106.636 27.5107 103.711Z" fill="#B2B2B2"/>
</svg>
