<svg width="70" height="140" viewBox="0 0 70 140" fill="none" xmlns="http://www.w3.org/2000/svg">
<path d="M58.3332 78.9121V23.3332C58.3332 10.4467 47.8866 0 35 0C22.1134 0 11.6668 10.4467 11.6668 23.3332V78.9119C4.50625 85.3207 0 94.6343 0 105C0 124.33 15.6702 140 35 140C54.3298 140 70 124.33 70 105C70 94.6343 65.4938 85.3207 58.3332 78.9121ZM35 128.333C22.1134 128.333 11.6668 117.887 11.6668 105C11.6668 98.2633 14.5217 92.0139 19.4474 87.6053L23.3335 84.1272V23.3332C23.3335 16.89 28.557 11.6665 35.0003 11.6665C41.4436 11.6665 46.667 16.8897 46.667 23.3332V84.1272L50.5531 87.6053C55.4788 92.0139 58.3338 98.263 58.3338 105C58.3332 117.887 47.8866 128.333 35 128.333Z" fill="#B2B2B2"/>
<path d="M40.8335 46.6667H29.1667V116.667H40.8335V46.6667Z" fill="#B2B2B2"/>
<path d="M35 122.5C44.665 122.5 52.5 114.665 52.5 105C52.5 95.335 44.665 87.5 35 87.5C25.335 87.5 17.5 95.335 17.5 105C17.5 114.665 25.335 122.5 35 122.5Z" fill="#B2B2B2"/>
</svg>
